<svg xmlns="http://www.w3.org/2000/svg" width="30.875" height="30.876" viewBox="0 0 30.875 30.876"><defs><style>.a{fill:#001737;}.b{fill:#00347b;}.c{fill:#7dd5f4;}.d{fill:#4793ff;}.e{fill:#fff4f4;}.f{fill:#eee1dc;}.g{fill:#00429d;}.h{fill:#525cdd;}.i{fill:#f6efea;}</style></defs><g transform="translate(9.83 14.413)"><path class="a" d="M182,255.463H163.9a.9.9,0,0,1-.9-.9V239.9a.9.9,0,0,1,.9-.9H182a.9.9,0,0,1,.9.9v14.654A.9.9,0,0,1,182,255.463Z" transform="translate(-163 -239)"/></g><g transform="translate(16.041 3.618)"><path class="a" d="M275.89,72.6H266.9a.9.9,0,0,1-.9-.9V60.9a.9.9,0,0,1,.9-.9h8.985a.9.9,0,0,1,.9.9V71.7A.9.9,0,0,1,275.89,72.6Z" transform="translate(-266 -60)"/></g><g transform="translate(18.513 3.618)"><path class="b" d="M316.227,61.81h-8.322a.9.9,0,0,1,0-1.809h8.322a.9.9,0,1,1,0,1.809Z" transform="translate(-307.001 -60.001)"/></g><g transform="translate(1.146)"><path class="c" d="M36.187,12.6H19.9a.9.9,0,0,1-.9-.9V.9a.9.9,0,0,1,.9-.9H36.187a.9.9,0,0,1,.9.9V11.7A.9.9,0,0,1,36.187,12.6Z" transform="translate(-19)"/></g><path class="d" d="M191.243,0h-7.236V12.6h7.236a.9.9,0,0,0,.9-.9V.9A.9.9,0,0,0,191.243,0Z" transform="translate(-172.911)"/><path class="e" d="M95,81h8.744v2.895H95Z" transform="translate(-89.271 -76.115)"/><g transform="translate(8.671 14.413)"><path class="b" d="M165.095,240.81H144.7a.9.9,0,0,1,0-1.809h20.4a.9.9,0,0,1,0,1.809Z" transform="translate(-143.795 -239.001)"/></g><g transform="translate(1.146 10.794)"><path class="c" d="M38,191.6H19.9a.9.9,0,0,1-.9-.9V179.9a.9.9,0,0,1,.9-.9H38a.9.9,0,0,1,.9.9V190.7A.9.9,0,0,1,38,191.6Z" transform="translate(-19 -179)"/></g><path class="d" d="M193.052,179h-9.045v12.6h9.045a.9.9,0,0,0,.9-.9V179.9A.9.9,0,0,0,193.052,179Z" transform="translate(-172.911 -168.206)"/><path class="e" d="M100,261h3.256v2.895H100Z" transform="translate(-93.97 -245.261)"/><path class="f" d="M223,261h3.256v2.895H223Z" transform="translate(-209.552 -245.261)"/><g transform="translate(4.764 14.413)"><path class="g" d="M83.523,244.427H79.9a.9.9,0,0,1-.9-.9V239.9a.9.9,0,0,1,.9-.9h3.618a.9.9,0,0,1,.9.9v3.618A.9.9,0,0,1,83.523,244.427Zm-2.714-1.809h1.809v-1.809H80.809Z" transform="translate(-79 -239)"/></g><g transform="translate(12 14.413)"><path class="b" d="M203.523,244.427H199.9a.9.9,0,0,1-.9-.9V239.9a.9.9,0,0,1,.9-.9h3.618a.9.9,0,0,1,.9.9v3.618A.9.9,0,0,1,203.523,244.427Zm-2.714-1.809h1.809v-1.809h-1.809Z" transform="translate(-199 -239)"/></g><g transform="translate(1.146 21.589)"><path class="d" d="M36.187,367.287H19.9a.9.9,0,0,1-.9-.9V358.9a.9.9,0,0,1,.9-.9H36.187a.9.9,0,0,1,.9.9v7.478A.9.9,0,0,1,36.187,367.287Z" transform="translate(-19 -358)"/></g><g transform="translate(23.579 18.031)"><path class="f" d="M391.9,302.377a.9.9,0,0,1-.9-.9V299.9a.9.9,0,1,1,1.809,0v1.568A.9.9,0,0,1,391.9,302.377Z" transform="translate(-391 -299)"/></g><path class="h" d="M191.243,358h-7.236v9.287h7.236a.9.9,0,0,0,.9-.9V358.9A.9.9,0,0,0,191.243,358Z" transform="translate(-172.911 -336.411)"/><g transform="translate(23.579 23.88)"><path class="f" d="M391.9,399.377a.9.9,0,0,1-.9-.9V396.9a.9.9,0,1,1,1.809,0v1.568A.9.9,0,0,1,391.9,399.377Z" transform="translate(-391 -396)"/></g><g transform="translate(0 21.589)"><path class="g" d="M20.383,359.81H.9A.9.9,0,0,1,.9,358H20.383a.9.9,0,0,1,0,1.809Z" transform="translate(0 -358.001)"/></g><g transform="translate(0 0)"><path class="g" d="M19.478,1.81H.9A.9.9,0,0,1,.9,0H19.478a.9.9,0,1,1,0,1.809Z" transform="translate(0 -0.001)"/></g><g transform="translate(0 10.794)"><path class="g" d="M21.3,180.81H.9A.9.9,0,0,1,.9,179H21.3a.9.9,0,1,1,0,1.809Z" transform="translate(0 -179.001)"/></g><path class="b" d="M192.389,0h-8.382V1.81h8.382a.9.9,0,1,0,0-1.809Z" transform="translate(-172.911 -0.001)"/><path class="i" d="M184.007,81h3.377v2.895h-3.377Z" transform="translate(-172.911 -76.115)"/><path class="b" d="M194.21,179h-10.2v1.809h10.2a.9.9,0,1,0,0-1.809Z" transform="translate(-172.911 -168.207)"/><path class="b" d="M193.293,358h-9.286v1.809h9.286a.9.9,0,0,0,0-1.809Z" transform="translate(-172.911 -336.412)"/><g transform="translate(4.643 3.618)"><path class="g" d="M87.191,65.427H77.9a.9.9,0,0,1-.9-.9V60.9a.9.9,0,0,1,.9-.9h9.287a.9.9,0,0,1,.9.9v3.618A.9.9,0,0,1,87.191,65.427Zm-8.382-1.809h7.478V61.809H78.809Z" transform="translate(-77 -60)"/></g><path class="b" d="M187.745,60h-3.738v1.809h2.834v1.809h-2.834v1.809h3.738a.9.9,0,0,0,.9-.9V60.9A.9.9,0,0,0,187.745,60Z" transform="translate(-172.911 -56.382)"/></svg>