<svg xmlns="http://www.w3.org/2000/svg" width="27.299" height="25.947" viewBox="0 0 27.299 25.947"><defs><style>.a{fill:#f4f5f7;}</style></defs><g transform="translate(0 -12.676)"><g transform="translate(0 12.675)"><path class="a" d="M26.84,24.2,14.592,13.043a1.393,1.393,0,0,0-1.886,0L.458,24.2A1.4,1.4,0,0,0,1.4,26.638H3.358V37.82a.8.8,0,0,0,.8.8h6.713a.8.8,0,0,0,.8-.8V31.031h3.946V37.82a.8.8,0,0,0,.8.8h6.713a.8.8,0,0,0,.8-.8V26.638H25.9A1.4,1.4,0,0,0,26.84,24.2Z" transform="translate(0 -12.676)"/></g><g transform="translate(18.34 14.278)"><g transform="translate(0 0)"><path class="a" d="M349.364,42.73h-5.391l6.194,5.632v-4.83A.8.8,0,0,0,349.364,42.73Z" transform="translate(-343.973 -42.73)"/></g></g></g></svg>