<svg xmlns="http://www.w3.org/2000/svg" width="22.071" height="28.975" viewBox="0 0 22.071 28.975"><defs><style>.a{fill:#fff;}</style></defs><g transform="translate(-61)"><path class="a" d="M82.822,7.04,76.031.249a.855.855,0,0,0-.6-.249H63.547A2.55,2.55,0,0,0,61,2.547V26.428a2.55,2.55,0,0,0,2.547,2.547H80.524a2.55,2.55,0,0,0,2.547-2.547V7.64A.857.857,0,0,0,82.822,7.04ZM76.28,2.9l3.893,3.893H77.129a.85.85,0,0,1-.849-.849Zm4.244,24.379H63.547a.85.85,0,0,1-.849-.849V2.547a.85.85,0,0,1,.849-.849H74.582V5.942a2.55,2.55,0,0,0,2.547,2.547h4.244v17.94A.85.85,0,0,1,80.524,27.277Z" transform="translate(0 0)"/><path class="a" d="M190.338,242h-8.489a.849.849,0,0,0,0,1.7h8.489a.849.849,0,0,0,0-1.7Z" transform="translate(-113.209 -228.305)"/><path class="a" d="M190.338,302h-8.489a.849.849,0,0,0,0,1.7h8.489a.849.849,0,0,0,0-1.7Z" transform="translate(-113.209 -284.909)"/><path class="a" d="M190.338,362h-8.489a.849.849,0,0,0,0,1.7h8.489a.849.849,0,0,0,0-1.7Z" transform="translate(-113.209 -341.514)"/><circle class="a" cx="1" cy="1" r="1" transform="translate(65 13.898)"/><circle class="a" cx="1" cy="1" r="1" transform="translate(65 16.898)"/><ellipse class="a" cx="1" cy="0.5" rx="1" ry="0.5" transform="translate(65 20.898)"/></g></svg>