<svg xmlns="http://www.w3.org/2000/svg" width="29.299" height="22.318" viewBox="0 0 29.299 22.318"><defs><style>.a{fill:#f4f5f7;}</style></defs><g transform="translate(0 -61)"><g transform="translate(0 61)"><path class="a" d="M26.724,61H2.575A2.579,2.579,0,0,0,0,63.575V80.742a2.579,2.579,0,0,0,2.575,2.575H26.724A2.579,2.579,0,0,0,29.3,80.742V63.575A2.579,2.579,0,0,0,26.724,61Zm-.356,1.717L14.7,74.381,2.939,62.717ZM1.717,80.387V63.922l8.268,8.2ZM2.931,81.6,11.2,73.328,14.1,76.2a.858.858,0,0,0,1.211,0l2.826-2.826L26.368,81.6Zm24.651-1.214-8.228-8.228,8.228-8.228Z" transform="translate(0 -61)"/></g></g></svg>