<svg xmlns="http://www.w3.org/2000/svg" width="58.182" height="56.296" viewBox="0 0 58.182 56.296"><defs><style>.a{fill:#f4f5f7;}</style></defs><g transform="translate(0 -7.981)"><g transform="translate(0 7.981)"><g transform="translate(0)"><path class="a" d="M56.048,22.87l-.012-.012a1.228,1.228,0,0,0-1.69.024,1.177,1.177,0,0,0,0,1.666,4.963,4.963,0,0,1-7.019,7.019.207.207,0,0,0-.059-.047,21.9,21.9,0,0,0-6.653-6.109,12.542,12.542,0,1,0-23.1-9.773,12.84,12.84,0,0,0-.969,4.089,10.511,10.511,0,0,0-3.037-.5,2.216,2.216,0,0,0-2.316,1.938,17.062,17.062,0,0,0,.248,3.675l.248,2.316a20.967,20.967,0,0,0-5.341,6.4l-3.427.674A3.643,3.643,0,0,0,0,37.807v7.6a3.633,3.633,0,0,0,2.919,3.569l3.439.685a18.867,18.867,0,0,0,2.47,3.7,7.8,7.8,0,0,0,2.316,8.957,8.766,8.766,0,0,0,5.566,1.962,9.13,9.13,0,0,0,6.216-2.446l.827-.78a25.788,25.788,0,0,0,9.182-.284L34.1,61.89a8.624,8.624,0,0,0,5.991,2.352h.284A8.779,8.779,0,0,0,46.5,61.535a7.859,7.859,0,0,0,.815-9.666,17.575,17.575,0,0,0,3.391-10.3v-.934a16.017,16.017,0,0,0-1.371-5.424A7.327,7.327,0,0,0,56.048,22.87ZM29.07,10.333a10.161,10.161,0,0,1,5.684,18.6c-.095.071-.189.213-.26.213h-10.8c-.047,0-.106-.071-.165-.118a10.2,10.2,0,0,1-4.62-7.811c-.024-.272-.024-.508-.024-.721A10.2,10.2,0,0,1,29.07,10.333ZM45.023,50.995a1.324,1.324,0,0,0-.142,1.513A1.021,1.021,0,0,0,45,52.7a5.531,5.531,0,0,1-.225,7.208,6.213,6.213,0,0,1-4.467,1.973h-.225a6.288,6.288,0,0,1-4.36-1.7l-1.536-1.465a1.4,1.4,0,0,0-1-.39,1.073,1.073,0,0,0-.272.035,23.3,23.3,0,0,1-9.264.3,1.147,1.147,0,0,0-.2-.012,1.381,1.381,0,0,0-1,.39l-1.158,1.1a6.749,6.749,0,0,1-4.313,1.8,6.472,6.472,0,0,1-4.36-1.406,5.468,5.468,0,0,1-1.442-6.641,1.292,1.292,0,0,0,.13-1,1.188,1.188,0,0,0-.284-.555A17.176,17.176,0,0,1,8.248,48.23a1.2,1.2,0,0,0-.225-.319,1.486,1.486,0,0,0-.839-.461L3.38,46.682a1.278,1.278,0,0,1-1.016-1.253V37.807A1.255,1.255,0,0,1,3.38,36.554L7.2,35.786a1.486,1.486,0,0,0,.839-.461,1.142,1.142,0,0,0,.225-.307,18.5,18.5,0,0,1,5.329-6.358c.035-.035.071-.059.106-.095a1.371,1.371,0,0,0,.4-1.016.485.485,0,0,0-.012-.13l-.307-2.836c-.106-.91-.284-2.552-.26-3h.047a9.624,9.624,0,0,1,3.061.614,12.433,12.433,0,0,0,3.368,6.96H18.872a1.182,1.182,0,1,0,0,2.363H39.35a1.182,1.182,0,1,0,0-2.363H38.122a9.428,9.428,0,0,0,1.371-1.69A19.3,19.3,0,0,1,46.015,33.9l.839,1.619a14.633,14.633,0,0,1,1.477,5.247v.815h0A15.322,15.322,0,0,1,45.023,50.995Z" transform="translate(0 -7.981)"/></g></g><g transform="translate(13.341 35.656)"><g transform="translate(0 0)"><path class="a" d="M115.925,242.181a3.025,3.025,0,1,0,3.025,3.025A3.023,3.023,0,0,0,115.925,242.181Zm0,3.7a.662.662,0,1,1,.662-.662A.646.646,0,0,1,115.925,245.88Z" transform="translate(-112.9 -242.181)"/></g></g><g transform="translate(21.909 13.334)"><path class="a" d="M192.561,53.281a7.161,7.161,0,1,0,7.161,7.161A7.156,7.156,0,0,0,192.561,53.281Zm0,11.959a4.8,4.8,0,1,1,4.8-4.8A4.8,4.8,0,0,1,192.561,65.24Z" transform="translate(-185.4 -53.281)"/></g></g></svg>