<svg xmlns="http://www.w3.org/2000/svg" width="29.849" height="29.849" viewBox="0 0 29.849 29.849"><defs><style>.a{fill:#f4f5f7;}</style></defs><path class="a" d="M167.332,221.989a2.917,2.917,0,0,0,2.076-.86.874.874,0,1,0-1.237-1.237,1.185,1.185,0,0,1-1.678,0,.874.874,0,0,0-1.237,1.237A2.917,2.917,0,0,0,167.332,221.989Z" transform="translate(-155.38 -206.832)"/><path class="a" d="M29.544,22.564l-5.538-4.747a.875.875,0,0,0-1.138,0l-2.5,2.142a7.9,7.9,0,0,0-4.336-1.3h-.291V17.479A6.712,6.712,0,0,0,18.6,12.826h.349a2.622,2.622,0,0,0,1.732-4.592,8.742,8.742,0,0,0-17.455,0,2.622,2.622,0,0,0,1.732,4.592H5.3a6.712,6.712,0,0,0,2.858,4.653v1.177H7.87A7.879,7.879,0,0,0,0,26.526v2.449a.875.875,0,0,0,.874.874H27.517a.875.875,0,0,0,.874-.874V23.88l.014.012a.874.874,0,1,0,1.138-1.328Zm-10.6-11.487h-.291V9.328h.291a.874.874,0,1,1,0,1.749Zm-7-9.328a7.016,7.016,0,0,1,6.9,5.83H15.725A3.326,3.326,0,0,1,12.733,5.73a.874.874,0,0,0-1.564,0A3.326,3.326,0,0,1,8.178,7.579H5.056a7.016,7.016,0,0,1,6.9-5.83ZM4.081,10.2a.875.875,0,0,1,.874-.874h.291v1.749H4.955A.875.875,0,0,1,4.081,10.2ZM7,11.951V9.328H8.178A5.063,5.063,0,0,0,11.951,7.66a5.063,5.063,0,0,0,3.773,1.668h1.182v2.623a4.955,4.955,0,1,1-9.911,0Zm4.955,6.7a6.681,6.681,0,0,0,2.04-.318v1.775a2.04,2.04,0,0,1-4.081,0V18.338A6.679,6.679,0,0,0,11.951,18.656Zm-10.2,7.87A6.128,6.128,0,0,1,7.87,20.4h.3a3.788,3.788,0,0,0,7.554,0h.3a6.054,6.054,0,0,1,2.94.75l-1.644,1.409a.874.874,0,1,0,1.138,1.328l.014-.012V28.1H6.413V25.943a.874.874,0,0,0-1.749,0V28.1H1.749ZM26.643,28.1H24.311V26.643a.874.874,0,1,0-1.749,0V28.1H20.23V22.381l3.206-2.748,3.206,2.748Z" transform="translate(0 0)"/><path class="a" d="M377,382.874a.875.875,0,0,0,.874.875h1.166a.874.874,0,1,0,0-1.749h-1.166A.875.875,0,0,0,377,382.874Z" transform="translate(-355.021 -359.73)"/></svg>