<svg xmlns="http://www.w3.org/2000/svg" width="26.072" height="25.682" viewBox="0 0 26.072 25.682"><defs><style>.a{fill:#f4f5f7;}</style></defs><g transform="translate(0 -0.066)"><path class="a" d="M19.895,294a6.125,6.125,0,0,0-4.486,1.932,9.388,9.388,0,0,0-5.89-2.05H9.5A9.318,9.318,0,0,0,2.774,296.7,9.976,9.976,0,0,0,0,303.771a.579.579,0,0,0,.163.4.555.555,0,0,0,.4.163L15.3,304.3c.034.039.067.073.1.112A6.178,6.178,0,1,0,19.895,294ZM1.14,303.2a8.781,8.781,0,0,1,2.437-5.722A8.189,8.189,0,0,1,9.5,295h.017a8.287,8.287,0,0,1,5.2,1.808,6.19,6.19,0,0,0-.213,6.373Zm18.755,2.022a5.054,5.054,0,1,1,5.054-5.054A5.054,5.054,0,0,1,19.895,305.226Zm0,0" transform="translate(0 -280.604)"/><path class="a" d="M85.384,11.937A5.935,5.935,0,1,0,79.449,6,5.935,5.935,0,0,0,85.384,11.937Zm0-10.748A4.812,4.812,0,1,1,80.572,6a4.812,4.812,0,0,1,4.812-4.812Zm0,0" transform="translate(-75.878)"/><path class="a" d="M384.614,373.1H382.9V371.39a.562.562,0,1,0-1.123,0V373.1h-1.713a.562.562,0,1,0,0,1.123h1.713v1.713a.562.562,0,1,0,1.123,0v-1.713h1.713a.562.562,0,0,0,0-1.123Zm0,0" transform="translate(-362.445 -354.096)"/></g></svg>