<svg xmlns="http://www.w3.org/2000/svg" width="27.072" height="27.072" viewBox="0 0 27.072 27.072"><defs><style>.a{fill:#f4f5f7;}</style></defs><g transform="translate(0 9.024)"><path class="a" d="M16.694,166.768h-.5a.444.444,0,0,1-.418-.291c-.055-.144-.114-.286-.178-.425a.445.445,0,0,1,.09-.5l.354-.354a1.357,1.357,0,0,0,0-1.913l-1.275-1.275a1.357,1.357,0,0,0-1.913,0l-.354.353a.447.447,0,0,1-.5.09c-.14-.064-.281-.123-.426-.18a.444.444,0,0,1-.293-.419v-.5A1.354,1.354,0,0,0,9.926,160h-1.8a1.354,1.354,0,0,0-1.354,1.354v.5a.444.444,0,0,1-.291.418c-.144.055-.286.114-.425.178a.446.446,0,0,1-.5-.09L5.193,162a1.357,1.357,0,0,0-1.913,0l-1.275,1.279a1.357,1.357,0,0,0,0,1.913l.353.354a.445.445,0,0,1,.09.5c-.064.14-.123.281-.178.426a.443.443,0,0,1-.421.291h-.5A1.354,1.354,0,0,0,0,168.122v1.8a1.354,1.354,0,0,0,1.354,1.354h.5a.444.444,0,0,1,.418.291c.055.144.114.286.178.426a.445.445,0,0,1-.09.5L2,172.855a1.357,1.357,0,0,0,0,1.913l1.275,1.275a1.357,1.357,0,0,0,1.913,0l.354-.353a.447.447,0,0,1,.5-.09c.14.064.281.123.426.18a.444.444,0,0,1,.3.419v.5a1.354,1.354,0,0,0,1.354,1.354h1.8a1.354,1.354,0,0,0,1.354-1.354v-.5a.444.444,0,0,1,.291-.418c.144-.055.286-.114.425-.178a.446.446,0,0,1,.5.09l.354.354a1.357,1.357,0,0,0,1.913,0l1.275-1.275a1.357,1.357,0,0,0,0-1.913l-.353-.354a.445.445,0,0,1-.09-.5c.064-.14.123-.281.18-.426a.444.444,0,0,1,.419-.293h.5a1.354,1.354,0,0,0,1.354-1.354v-1.8A1.354,1.354,0,0,0,16.694,166.768Zm.451,3.158a.451.451,0,0,1-.451.451h-.5a1.358,1.358,0,0,0-1.263.873q-.072.19-.155.373a1.358,1.358,0,0,0,.271,1.514l.353.353a.451.451,0,0,1,0,.638h0L14.128,175.4a.451.451,0,0,1-.638,0l-.354-.353a1.356,1.356,0,0,0-1.514-.271c-.122.055-.247.107-.372.155a1.358,1.358,0,0,0-.872,1.262v.5a.451.451,0,0,1-.451.451h-1.8a.451.451,0,0,1-.451-.451v-.5a1.358,1.358,0,0,0-.873-1.263q-.19-.072-.373-.155a1.358,1.358,0,0,0-1.514.271l-.353.353a.451.451,0,0,1-.638,0h0l-1.275-1.274a.451.451,0,0,1,0-.638L3,173.138a1.358,1.358,0,0,0,.271-1.514c-.055-.122-.107-.247-.155-.372a1.358,1.358,0,0,0-1.262-.874h-.5a.451.451,0,0,1-.451-.451v-1.8a.451.451,0,0,1,.451-.451h.5a1.358,1.358,0,0,0,1.263-.873q.072-.19.155-.373A1.358,1.358,0,0,0,3,164.91l-.355-.353a.451.451,0,0,1,0-.638h0l1.275-1.275a.451.451,0,0,1,.638,0L4.91,163a1.356,1.356,0,0,0,1.514.271c.122-.055.247-.107.372-.155a1.358,1.358,0,0,0,.874-1.262v-.5a.451.451,0,0,1,.451-.451h1.8a.451.451,0,0,1,.451.451v.5a1.358,1.358,0,0,0,.873,1.263q.19.072.373.155A1.356,1.356,0,0,0,13.138,163l.353-.353a.454.454,0,0,1,.638,0L15.4,163.92a.451.451,0,0,1,0,.638l-.353.354a1.358,1.358,0,0,0-.271,1.514c.055.122.107.247.155.372a1.358,1.358,0,0,0,1.262.872h.5a.451.451,0,0,1,.451.451v1.8Z" transform="translate(0 -160)"/></g><g transform="translate(4.961 13.987)"><path class="a" d="M96.073,251.88c0-.108-.012-.216-.025-.323s-.032-.23-.055-.342c-.016-.074-.037-.146-.056-.219q-.038-.139-.085-.275-.033-.094-.069-.187a4.02,4.02,0,0,0-.2-.422c-.006-.01-.009-.022-.015-.032a4,4,0,0,0-.406-.592c-.013-.016-.028-.032-.042-.047-.062-.074-.126-.145-.194-.213-.035-.037-.072-.071-.109-.106s-.09-.083-.135-.123-.111-.094-.167-.138l-.074-.055a4.032,4.032,0,0,0-2.419-.8c-.045,0-.09.007-.135.009-.1,0-.193.008-.29.018-.051.005-.1.011-.153.018a4.135,4.135,0,0,0-.437.082,4.063,4.063,0,0,0,0,7.868.1.1,0,0,1,.023,0,4.314,4.314,0,0,0,.473.09c.105.013.21.016.316.021.07,0,.135.014.209.014.129,0,.262-.009.4-.022a.445.445,0,0,0,.045-.006c.11-.012.221-.028.334-.051.045-.009.087-.02.13-.03.079-.018.158-.038.24-.062.063-.019.125-.041.186-.063l.19-.069c.064-.024.118-.052.176-.079.076-.035.151-.069.226-.11h0a5.34,5.34,0,0,0,1.156-.835,1.421,1.421,0,0,0,.242-.3,4.817,4.817,0,0,0,.68-1.854c.013-.087.024-.174.031-.263s.011-.163.013-.244c0-.026,0-.05,0-.076C96.082,252,96.076,251.942,96.073,251.88Zm-.9.3c0,.037,0,.075-.005.112-.008.109-.022.218-.041.328a3.165,3.165,0,0,1-1.586,2.211c-.056.029-.111.057-.166.082l-.037.018a3.26,3.26,0,0,1-.823.249l-.06.009c-.056.008-.112.015-.167.02-.073.006-.146.01-.22.011h-.094a3.175,3.175,0,0,1-.319-.02l-.054-.006a3.337,3.337,0,0,1-.369-.069,3.158,3.158,0,0,1,0-6.119h0a3.268,3.268,0,0,1,.793-.1,3.118,3.118,0,0,1,.386.026c.034,0,.068.01.1.015.1.015.194.035.289.059l.093.024a3.186,3.186,0,0,1,.688.29l.1.063c.071.045.14.09.208.142.037.027.074.053.109.081a3.259,3.259,0,0,1,.254.226c.032.033.061.068.092.1.052.056.1.114.151.175.033.042.065.085.1.129.045.065.09.133.131.2l.068.112a3.091,3.091,0,0,1,.155.331c.018.045.033.09.05.135.029.083.055.167.077.252.011.045.024.085.033.129a3.183,3.183,0,0,1,.057.37c0,.033,0,.066,0,.1C95.176,251.967,95.178,252.071,95.174,252.176Z" transform="translate(-87.959 -248)"/></g><g transform="translate(4.922)"><path class="a" d="M108.058,9.475h-1.419a.44.44,0,0,1-.421-.3,9.4,9.4,0,0,0-.507-1.223.442.442,0,0,1,.087-.509L106.8,6.439a1.354,1.354,0,0,0,0-1.914L104.886,2.61a1.354,1.354,0,0,0-1.914,0l-1.006,1.005a.442.442,0,0,1-.509.087,9.374,9.374,0,0,0-1.224-.509.44.44,0,0,1-.3-.421V1.354A1.354,1.354,0,0,0,98.583,0H95.876a1.354,1.354,0,0,0-1.354,1.354V2.773a.44.44,0,0,1-.3.421A9.4,9.4,0,0,0,93,3.7a.441.441,0,0,1-.509-.087L91.486,2.609a1.356,1.356,0,0,0-1.914,0L87.658,4.524a1.354,1.354,0,0,0,0,1.914L89.137,7.92a.451.451,0,0,0,.639-.637L88.3,5.8a.451.451,0,0,1,0-.638L90.21,3.249a.451.451,0,0,1,.638,0l1.008,1.006a1.341,1.341,0,0,0,1.55.254,8.537,8.537,0,0,1,1.106-.46,1.342,1.342,0,0,0,.912-1.277V1.354A.451.451,0,0,1,95.876.9h2.707a.451.451,0,0,1,.451.451V2.773a1.342,1.342,0,0,0,.912,1.276,8.51,8.51,0,0,1,1.106.46,1.345,1.345,0,0,0,1.55-.255l1.008-1.006a.451.451,0,0,1,.638,0l1.915,1.915a.451.451,0,0,1,0,.638L105.157,6.81a1.343,1.343,0,0,0-.254,1.55,8.537,8.537,0,0,1,.46,1.106,1.342,1.342,0,0,0,1.277.912h1.419a.451.451,0,0,1,.451.451v2.707a.451.451,0,0,1-.451.451h-1.419a1.342,1.342,0,0,0-1.276.912,8.5,8.5,0,0,1-.46,1.106,1.343,1.343,0,0,0,.255,1.55l1.006,1.008a.451.451,0,0,1,0,.638l-1.916,1.915a.451.451,0,0,1-.638,0l-1.483-1.479a.451.451,0,1,0-.648.628l.011.011,1.482,1.479a1.354,1.354,0,0,0,1.914,0l1.915-1.914a1.354,1.354,0,0,0,0-1.914l-1-1.007a.442.442,0,0,1-.087-.509,9.372,9.372,0,0,0,.509-1.224.44.44,0,0,1,.421-.3h1.419a1.354,1.354,0,0,0,1.354-1.354V10.829A1.354,1.354,0,0,0,108.058,9.475Z" transform="translate(-87.261)"/></g><g transform="translate(10.616 6.32)"><path class="a" d="M196.64,113.765a5.872,5.872,0,0,0-8.295,0,.451.451,0,0,0,.638.638,4.963,4.963,0,1,1,7.066,6.972l-.047.047a.451.451,0,1,0,.627.649l.011-.011A5.871,5.871,0,0,0,196.64,113.765Z" transform="translate(-188.219 -112.049)"/></g></svg>