<svg xmlns="http://www.w3.org/2000/svg" width="30.556" height="30.556" viewBox="0 0 30.556 30.556"><defs><style>.a{fill:#f4f5f7;}</style></defs><path class="a" d="M15.278,30.556A15.276,15.276,0,1,1,26.96,25.125a15.438,15.438,0,0,1-1.8,1.807A15.282,15.282,0,0,1,15.278,30.556Zm0-28.646A13.369,13.369,0,0,0,5.055,23.893a13.524,13.524,0,0,0,1.579,1.582,13.369,13.369,0,0,0,17.288,0A13.524,13.524,0,0,0,25.5,23.893,13.369,13.369,0,0,0,15.278,1.91Z" transform="translate(0 0)"/><path class="a" d="M165.729,75.458a5.729,5.729,0,1,1,5.729-5.729A5.736,5.736,0,0,1,165.729,75.458Zm0-9.549a3.819,3.819,0,1,0,3.819,3.819A3.824,3.824,0,0,0,165.729,65.91Z" transform="translate(-150.451 -60.181)"/><path class="a" d="M99.766,237.791a.956.956,0,0,1-.927-1.188,8.6,8.6,0,0,0-8.21-10.693h-.251a8.6,8.6,0,0,0-8.21,10.693.955.955,0,1,1-1.852.465A10.506,10.506,0,0,1,90.355,224h.3a10.512,10.512,0,0,1,10.039,13.068A.955.955,0,0,1,99.766,237.791Z" transform="translate(-75.226 -210.632)"/></svg>