<svg xmlns="http://www.w3.org/2000/svg" width="31.556" height="31.546" viewBox="0 0 31.556 31.546"><defs><style>.a{fill:#f4f5f7;}</style></defs><g transform="translate(0 -0.076)"><g transform="translate(10.534 0.076)"><g transform="translate(0 0)"><path class="a" d="M184.822,7.049l2.22-5.219a.616.616,0,0,0-.252-.771L185.7.411a2.381,2.381,0,0,0-2.714.2l-.168.137a1.144,1.144,0,0,1-1.443,0l-.007-.005a2.38,2.38,0,0,0-3.005,0,1.144,1.144,0,0,1-1.445,0l-.171-.14a2.382,2.382,0,0,0-2.7-.207l-1.118.658a.616.616,0,0,0-.254.774L174.9,7.044a7.63,7.63,0,0,0-3.9,3.165.616.616,0,1,0,1.049.647,6.4,6.4,0,0,1,3.365-2.689h8.873a6.371,6.371,0,0,1,4.315,6.041v1.635a.616.616,0,0,0,1.233,0V14.209A7.6,7.6,0,0,0,184.822,7.049Zm-1.291-.113H176.2l-2.181-5.089.651-.383a1.145,1.145,0,0,1,1.3.1l.171.139a2.38,2.38,0,0,0,3.006,0,1.144,1.144,0,0,1,1.445,0l.007.005a2.381,2.381,0,0,0,3,0l.168-.137a1.144,1.144,0,0,1,1.3-.1l.626.372Z" transform="translate(-170.913 -0.076)"/></g></g><g transform="translate(28.228 17.556)"><path class="a" d="M459.052,283.886a.616.616,0,1,0,.181.436A.621.621,0,0,0,459.052,283.886Z" transform="translate(-458 -283.705)"/></g><g transform="translate(8.376 27.383)"><path class="a" d="M136.962,443.326a.616.616,0,1,0,.181.436A.621.621,0,0,0,136.962,443.326Z" transform="translate(-135.91 -443.145)"/></g><g transform="translate(0 11.9)"><path class="a" d="M31.556,205.854a2.336,2.336,0,0,0-.761-1.726,2.341,2.341,0,0,0-1.581-4.068H22.557a2.341,2.341,0,0,0-1.581,4.068,2.338,2.338,0,0,0,0,3.451,2.338,2.338,0,0,0-.481,2.835h-2.51V208a6.264,6.264,0,0,0-5.692-6.23.618.618,0,0,0-.266-.018H12a4.289,4.289,0,0,0,1.3-3.075v-6.138a.616.616,0,0,0-.616-.616H8.113a3.426,3.426,0,0,0-3.422,3.422v3.332a4.288,4.288,0,0,0,1.3,3.075H5.958a.619.619,0,0,0-.266.018A6.264,6.264,0,0,0,0,208v3.026a.616.616,0,0,0,.616.616h28.6A2.341,2.341,0,0,0,30.8,207.58,2.336,2.336,0,0,0,31.556,205.854ZM5.923,196.21v-.863a2.192,2.192,0,0,1,2.19-2.19h3.949v1.649a1.513,1.513,0,0,1-1.511,1.511H5.923Zm0,2.469v-1.129h4.627a2.728,2.728,0,0,0,1.511-.455v1.584a3.069,3.069,0,0,1-6.139,0Zm4.706,4.3-1.637,1.637-1.637-1.637Zm6.123,7.433H1.233v-1.774H6.262a.616.616,0,1,0,0-1.233H1.269a5.031,5.031,0,0,1,4.381-4.389l2.907,2.907a.616.616,0,0,0,.872,0l2.907-2.907A5.029,5.029,0,0,1,16.753,208Zm12.461,0H22.557a1.109,1.109,0,0,1,0-2.219h6.656a1.109,1.109,0,0,1,0,2.219Zm0-3.451H22.557a1.109,1.109,0,0,1,0-2.219h6.656a1.109,1.109,0,0,1,0,2.219Zm0-3.451H22.557a1.109,1.109,0,0,1,0-2.219h6.656a1.109,1.109,0,0,1,0,2.219Z" transform="translate(0 -191.925)"/></g><g transform="translate(20.923 10.757)"><path class="a" d="M341.609,176.749a.766.766,0,1,1,.895-.755.616.616,0,0,0,1.233,0,2.013,2.013,0,0,0-1.511-1.9V174a.616.616,0,1,0-1.233,0v.092a2.013,2.013,0,0,0-1.511,1.9,2.063,2.063,0,0,0,2.127,1.988.766.766,0,1,1-.895.755.616.616,0,0,0-1.233,0,2.013,2.013,0,0,0,1.511,1.9v.04a.616.616,0,1,0,1.233,0v-.04a2.013,2.013,0,0,0,1.511-1.9A2.063,2.063,0,0,0,341.609,176.749Z" transform="translate(-339.482 -173.383)"/></g></g></svg>