<svg xmlns="http://www.w3.org/2000/svg" width="32.849" height="32.585" viewBox="0 0 32.849 32.585"><defs><style>.a{fill:#f4f5f7;}</style></defs><path class="a" d="M31,16.581V10.092a2.732,2.732,0,0,0-2.737-2.721h-.928l.206-.71a2.174,2.174,0,0,0-1.5-2.694L19.831,2.189a.544.544,0,1,0-.3,1.046l3.905,1.117a3.307,3.307,0,0,0-.012,3.018H11.976V3.085a.547.547,0,0,0-1.095,0V7.371H9.034V3.085a.547.547,0,0,0-1.095,0V7.371h-2.4V2.677A1.093,1.093,0,0,1,6.638,1.588h9.239a1.093,1.093,0,0,1,1.095,1.088V5.67a.547.547,0,0,0,1.095,0V2.677A2.186,2.186,0,0,0,15.877.5H6.638a2.186,2.186,0,0,0-2.19,2.177V7.371H2.737A2.732,2.732,0,0,0,0,10.092V30.364a2.732,2.732,0,0,0,2.737,2.721H28.264A2.732,2.732,0,0,0,31,30.364v-3.98a.547.547,0,0,0-1.095,0v3.98A1.639,1.639,0,0,1,28.264,32H2.737a1.639,1.639,0,0,1-1.642-1.633V10.092A1.639,1.639,0,0,1,2.737,8.459H28.264a1.639,1.639,0,0,1,1.642,1.633v6.463H25.39a2.186,2.186,0,0,0-2.19,2.177v2.993A2.186,2.186,0,0,0,25.39,23.9h5.271a2.186,2.186,0,0,0,2.189-2.177V18.731A2.184,2.184,0,0,0,31,16.581ZM24.516,4.662l1.225.35a1.087,1.087,0,0,1,.749,1.347L26.2,7.371H24.733A2.231,2.231,0,0,1,24.516,4.662Zm7.238,17.062a1.093,1.093,0,0,1-1.095,1.088H25.39a1.093,1.093,0,0,1-1.095-1.088V18.731a1.093,1.093,0,0,1,1.095-1.088h5.27a1.093,1.093,0,0,1,1.095,1.088Zm-4.311-1.5a.546.546,0,0,1-.547.544h-.821a.544.544,0,1,1,0-1.088H26.9A.546.546,0,0,1,27.443,20.228Z" transform="translate(0 -0.5)"/></svg>