<svg xmlns="http://www.w3.org/2000/svg" width="56.918" height="50.277" viewBox="0 0 56.918 50.277"><defs><style>.a{fill:#f4f5f7;}</style></defs><g transform="translate(0 -28.007)"><g transform="translate(40.783 51.718)"><circle class="a" cx="2" cy="2" r="2" transform="translate(0.217 0.289)"/></g><g transform="translate(31.299 39.388)"><g transform="translate(0 0)"><path class="a" d="M280.123,124.007H264.948a.948.948,0,0,0,0,1.9h14.227v2.845a.948.948,0,1,0,1.9,0v-3.794A.948.948,0,0,0,280.123,124.007Z" transform="translate(-264 -124.007)"/></g></g><g transform="translate(3.794 57.409)"><path class="a" d="M47.175,284.543h-9.37a3.883,3.883,0,0,1-2.764-1.145,3.939,3.939,0,0,1-1.145-2.764v-3.679a.948.948,0,0,0-1.9,0v3.679a5.806,5.806,0,0,0,5.805,5.805h9.37a.948.948,0,1,0,0-1.9Z" transform="translate(-32 -276.007)"/></g><g transform="translate(0 28.007)"><g transform="translate(0 0)"><path class="a" d="M54.089,64.787a7.588,7.588,0,0,0-1.925-1.129V59.306H55.01a.948.948,0,0,0,.948-.948V48.873a.948.948,0,0,0-.948-.948H52.164V36.543a.948.948,0,0,0-.948-.948H47.422V32.749a.948.948,0,0,0-.948-.948H38.886V28.955a.948.948,0,0,0-.948-.948H4.823a4.694,4.694,0,0,0-3.295,1.364l-.163.163A4.63,4.63,0,0,0,.048,33.46.907.907,0,0,0,0,33.7V64.21a7.425,7.425,0,0,0,7.424,7.425H32.312a7.572,7.572,0,0,0,12.258,4.97,7.588,7.588,0,0,0,9.519-11.818Zm-.028-14.966v7.588H41.8a3.794,3.794,0,0,1,0-7.588ZM2.706,30.876l.162-.162a2.78,2.78,0,0,1,1.955-.81H36.989v1.9H6.639a.948.948,0,0,0,0,1.9H45.525v1.9H4.662a2.765,2.765,0,0,1-1.956-4.718ZM32.312,69.738H7.424A5.527,5.527,0,0,1,1.9,64.211h0V36.569a4.669,4.669,0,0,0,2.765.923H50.267V47.924H41.8a5.691,5.691,0,0,0,0,11.381h8.469v3.859a7.643,7.643,0,0,0-.948-.065,7.518,7.518,0,0,0-4.742,1.672,7.573,7.573,0,0,0-12.264,4.967Zm7.522,6.639a5.691,5.691,0,1,1,5.691-5.691A5.691,5.691,0,0,1,39.835,76.377Zm9.484,0a5.645,5.645,0,0,1-3.42-1.15,7.531,7.531,0,0,0,0-9.082,5.688,5.688,0,1,1,3.42,10.232Z" transform="translate(0 -28.007)"/></g></g></g></svg>